# xmcd
#
# Track frame offsets: 
#        150
#        14793
#        29654
#        44211
#        61077
#        78324
#        97443
#        111302
#        124738
#        141668
#
# Disc length: 2031 seconds
#
# Revision: 0
# Processed by: cddbd v1.5.2PL0 Copyright (c) Steve Scherf et al.
# Submitted via: ExactAudioCopy v0.95b4
#
DISCID=9f07ed0a
DTITLE=Happy Disco VOL I - Happy Disco VOL I
DYEAR=2009
DGENRE=Dance
TTITLE0=Welcome To Wintour (Dabliuti)
TTITLE1=Happy (Alexia)
TTITLE2=Uncle John From Jamaica (Venga Boys)
TTITLE3=Mamma Mia (Ab-Ab)
TTITLE4=Tjoeke Tjakke (Kreta Boys)
TTITLE5=1001 Arabian Nights (Chipz)
TTITLE6=Das Lied Über Mich (Peter Wackel Und Partyreisen)
TTITLE7=Cowboy (Chipz)
TTITLE8=I Like To Move It (Madagascar Soundtrack)
TTITLE9=Head Shoulders Knees U. Toes (Hot Banditoz)
EXTD=
EXTT0=
EXTT1=
EXTT2=
EXTT3=
EXTT4=
EXTT5=
EXTT6=
EXTT7=
EXTT8=
EXTT9=
PLAYORDER=
